# xmcd CD database file
#
# Track frame offsets:
#	150
#	11425
#	28312
#	44987
#	55687
#	73900
#	84187
#	104337
#	115337
#	128362
#
# Disc length: 1928 seconds
#
# Revision: 0
# Processed by: cddbd v1.4PL0 Copyright (c) Steve Scherf et al.
# Submitted via: CDex 1.40Release
#
DISCID=8307860a
DTITLE=Davis Coen - Cryin' the Blues
DYEAR=1995
DGENRE=Blues
TTITLE0=How Long Blues
TTITLE1=Long Lost Friend
TTITLE2=Master Plan Blues
TTITLE3=Bye And Bye I'm Goin' To See The King
TTITLE4=Sweet Heartaches
TTITLE5=Bad Luck Blues
TTITLE6=Trouble In My Mind
TTITLE7=Pearline
TTITLE8=Ain't Even Got A Rock To Lay My Head On
TTITLE9=Good Morning Little Schoolgirl
EXTD=YEAR: 1995 ID3G: 0
EXTT0=
EXTT1=
EXTT2=
EXTT3=
EXTT4=
EXTT5=
EXTT6=
EXTT7=
EXTT8=
EXTT9=
PLAYORDER=
